# m3u8

## ABC

~~~
Input #0, mpegts, from 'Grey's Anatomy-The Makings of You-18-12.ts':
   Stream #0:0[0x101]: Audio: aac (HE-AAC) ([15][0][0][0] / 0x000F), 48000 Hz,
   Stream #0:1[0x102]: Video: h264 (Main)
~~~

## NBC

~~~
Input #0, mpegts, from
'[4338756] Saturday Night Live - April 10 - Carey Mulligan.ts':
   Stream #0:0[0x101]: Audio: aac (LC) ([15][0][0][0] / 0x000F), 44100 Hz
   Stream #0:1[0x102]: Video: h264 (High) ([27][0][0][0] / 0x001B)
~~~

## Paramount

~~~
Input #0, mpegts, from 'Star Trek Discovery - Si Vis Pacem, Para Bellum-1-8.ts':
   Stream #0:0[0x100]: Video: h264 (High) ([27][0][0][0] / 0x001B)
   Stream #0:1[0x101]: Audio: aac (LC) ([15][0][0][0] / 0x000F), 48000 Hz
~~~

## PBS

~~~
Input #0, mpegts, from 'american-horses-i5v309.ts':
   Stream #0:0[0x1e1]: Video: h264 (Main) ([27][0][0][0] / 0x001B)

Input #0, aac, from 'american-horses-i5v309.aac':
  Stream #0:0: Audio: aac (LC), 48000 Hz, stereo, fltp, 161 kb/s
~~~

## CBC

~~~
Input #0, mpegts, from 'CBC_DOWNTON_ABBEY_S01E05.video':
   Stream #0:0[0x12c]: Video: h264 (Constrained Baseline)

Input #0, mpegts, from 'CBC_DOWNTON_ABBEY_S01E05.audio':
  Stream #0:0[0x12d]: Audio: aac (LC) ([15][0][0][0] / 0x000F), 44100 Hz
~~~
